<?xml version="1.0" encoding="UTF-8" standalone="no"?>
<!DOCTYPE svg PUBLIC "-//W3C//DTD SVG 1.1//EN" "http://www.w3.org/Graphics/SVG/1.1/DTD/svg11.dtd">
<svg width="100%" height="100%" viewBox="0 0 1182 1182" version="1.1" xmlns="http://www.w3.org/2000/svg" xmlns:xlink="http://www.w3.org/1999/xlink" xml:space="preserve" xmlns:serif="http://www.serif.com/" style="fill-rule:evenodd;clip-rule:evenodd;stroke-linejoin:round;stroke-miterlimit:2;">
    <g transform="matrix(1.24403,0,0,1.24403,-160.479,-123.601)">
        <path d="M948.006,158.718C967.613,139.111 999.45,139.111 1019.06,158.718C1038.66,178.325 1038.66,210.161 1019.06,229.768L259.412,989.412C239.805,1009.02 207.969,1009.02 188.362,989.412C168.755,969.805 168.755,937.969 188.362,918.362L948.006,158.718Z"/>
        <g transform="matrix(-1.83697e-16,1,-1,-1.83697e-16,1177.77,-29.6442)">
            <path d="M948.006,158.718C967.613,139.111 999.45,139.111 1019.06,158.718C1038.66,178.325 1038.66,210.161 1019.06,229.768L259.412,989.412C239.805,1009.02 207.969,1009.02 188.362,989.412C168.755,969.805 168.755,937.969 188.362,918.362L948.006,158.718Z"/>
        </g>
    </g>
</svg>
