<?xml version="1.0" encoding="UTF-8" standalone="no"?>
<!DOCTYPE svg PUBLIC "-//W3C//DTD SVG 1.1//EN" "http://www.w3.org/Graphics/SVG/1.1/DTD/svg11.dtd">
<svg width="100%" height="100%" viewBox="0 0 80 80" version="1.1" xmlns="http://www.w3.org/2000/svg" xmlns:xlink="http://www.w3.org/1999/xlink" xml:space="preserve" xmlns:serif="http://www.serif.com/" style="fill-rule:evenodd;clip-rule:evenodd;stroke-linejoin:round;stroke-miterlimit:2;">
    <g transform="matrix(1,0,0,1,-11787.3,-14969.7)">
        <g transform="matrix(0.366211,0,0,0.324883,6579.12,6212.06)">
            <g id="Logo" transform="matrix(0.858921,0,0,0.972202,12426.7,26765.8)">
                <g transform="matrix(0.704209,0,0,0.704209,2301.93,236.207)">
                    <path d="M0,245.218L57.216,302.44L-121.135,302.44C-158.286,302.44 -193.95,291.294 -224.421,269.741C-247.461,253.393 -266.776,231.846 -280.148,206.578C-293.532,180.572 -300.962,151.589 -300.962,122.606C-300.962,78.024 -284.613,34.919 -254.142,1.483C-243.747,-9.663 -231.851,-19.326 -219.217,-27.5C-189.496,-46.82 -155.31,-57.222 -120.385,-57.222C-72.088,-57.222 -26.756,-38.646 7.431,-4.465C41.605,29.721 60.193,75.047 60.193,123.35C60.193,158.275 49.786,192.461 30.46,221.439L25.269,228.875L-39.39,164.223L-37.163,159.763C-31.959,147.874 -28.982,135.24 -28.982,122.606C-28.982,98.088 -38.64,75.047 -55.738,57.96C-72.826,40.867 -95.867,31.204 -120.385,31.204C-133.019,31.204 -145.652,34.181 -157.536,39.378C-167.943,43.838 -176.862,49.785 -185.031,57.96C-186.519,59.443 -188.008,60.931 -189.496,63.158C-203.618,79.507 -211.048,100.315 -211.048,121.868C-211.048,146.385 -201.38,169.426 -184.292,186.514C-167.205,203.607 -144.914,213.27 -121.135,213.27L-31.209,213.27L-28.982,215.497L0,245.218Z" style="fill:white;fill-rule:nonzero;"/>
                </g>
                <g transform="matrix(0,-0.704209,-0.704209,0,2217.29,281.181)">
                    <path d="M-52.627,-52.627C-81.692,-52.627 -105.254,-29.065 -105.254,0C-105.254,29.065 -81.692,52.627 -52.627,52.627C-23.562,52.627 0,29.065 0,0C0,-29.065 -23.562,-52.627 -52.627,-52.627" style="fill:white;fill-rule:nonzero;"/>
                </g>
            </g>
        </g>
    </g>
</svg>
